# xmcd
#
# Track frame offsets:
#	150
#	15362
#	29749
#	45132
#	60979
#	77075
#	91939
#	107663
#	121783
#	137222
#	154267
#	173658
#	189330
#	204181
#	219160
#	235177
#	250411
#	267301
#	286342
#	303685
#	320864
#	337453
#
# Disc length: 4742 seconds
#
# Revision: 2
# Processed by: cddbd v1.5.2PL0 Copyright (c) Steve Scherf et al.
# Submitted via: audiograbber 1.83.01
#
DISCID=32128416
DTITLE=Tops - Die grossen Erfolge
DYEAR=2007
DGENRE=Schlager
TTITLE0=Du Bist Für Mich  - Tops
TTITLE1=Angel Of Love - Tops
TTITLE2=Ich Will Mit Dir - Tops
TTITLE3=Vino Rosso - Tops
TTITLE4=Oh Joana - Tops
TTITLE5=Du Bist Mein Kleines Paradies - Tops
TTITLE6=Ein Himmelbett - Tops
TTITLE7=Sag Kuschelbär - Tops
TTITLE8=Den Talisman Von Dir - Tops
TTITLE9=Tausendmal - Tops
TTITLE10=Zum Himmel fliegt mein Herz - Tops
TTITLE11=So Wie Der Sommer - Tops
TTITLE12=Bleibe bei mir - Tops
TTITLE13=Rutsch mir den Buckel runter - Tops
TTITLE14=Einmal nur - Tops
TTITLE15=Alles Paletti - Tops
TTITLE16=Kein Weg zu weit - Tops
TTITLE17=Herz An Herz - Tops
TTITLE18=Heimweh nach der Heimat - Tops
TTITLE19=So wie beim ersten mal - Tops 
TTITLE20=Einen Stern der deinen Namen trägt -Tops
TTITLE21=Nur ein Bild von dir - Tops
EXTD=
EXTT0=
EXTT1=
EXTT2=
EXTT3=
EXTT4=
EXTT5=
EXTT6=
EXTT7=
EXTT8=
EXTT9=
EXTT10=
EXTT11=
EXTT12=
EXTT13=
EXTT14=
EXTT15=
EXTT16=
EXTT17=
EXTT18=
EXTT19=
EXTT20=
EXTT21=
PLAYORDER=
